<svg width="256" height="243" viewBox="0 0 256 243" fill="none" xmlns="http://www.w3.org/2000/svg">
<g filter="url(#filter0_d_3_133)">
<rect x="113.032" y="121.988" width="28.8393" height="148.585" rx="14.4196" transform="rotate(49.1989 113.032 121.988)" fill="#9E754E"/>
<ellipse cx="20.149" cy="221.628" rx="4.70205" ry="5.01552" transform="rotate(49.1989 20.149 221.628)" fill="black"/>
<rect x="113.032" y="121.988" width="28.8393" height="96.5488" rx="14.4196" transform="rotate(49.1989 113.032 121.988)" fill="#281F1F"/>
<circle cx="135.3" cy="121.4" r="85.5774" transform="rotate(49.1989 135.3 121.4)" fill="#222222"/>
<ellipse cx="135.505" cy="121.637" rx="82.7561" ry="82.4427" transform="rotate(49.1989 135.505 121.637)" fill="#9E754E"/>
<ellipse cx="135.505" cy="121.637" rx="69.5904" ry="69.2769" transform="rotate(49.1989 135.505 121.637)" fill="#805A36"/>
<path d="M92.7196 95.134C92.8163 95.482 92.8066 95.859 92.6906 96.265C92.5746 96.6517 92.3136 96.9417 91.9076 97.135C91.2696 97.309 90.6219 97.4443 89.9646 97.541C89.3073 97.6183 88.6403 97.7053 87.9636 97.802C87.3063 97.8793 86.6489 97.9953 85.9916 98.15C85.3536 98.2853 84.7253 98.498 84.1066 98.788C83.4299 99.1167 82.8499 99.5323 82.3666 100.035C81.8833 100.538 81.4579 101.089 81.0906 101.688C80.7426 102.268 80.4236 102.877 80.1336 103.515C79.8629 104.153 79.5826 104.772 79.2926 105.371C78.8673 106.28 78.6643 107.188 78.6836 108.097C78.7029 109.006 78.7899 109.924 78.9446 110.852C79.0993 111.78 79.2346 112.727 79.3506 113.694C79.4859 114.641 79.4376 115.598 79.2056 116.565C79.0316 116.971 78.7416 117.232 78.3356 117.348C77.9489 117.464 77.5816 117.435 77.2336 117.261C76.6923 116.7 76.3443 116.062 76.1896 115.347C76.0349 114.632 75.9963 113.907 76.0736 113.172C76.1703 112.437 76.3443 111.712 76.5956 110.997C76.8469 110.262 77.0983 109.605 77.3496 109.025C77.5623 108.329 77.6686 107.614 77.6686 106.879C77.6686 106.144 77.6783 105.419 77.6976 104.704C77.7363 103.969 77.8813 103.273 78.1326 102.616C78.3453 102.055 78.6159 101.533 78.9446 101.05C79.2733 100.567 79.5439 100.035 79.7566 99.455C80.1433 98.411 80.7233 97.5893 81.4966 96.99C82.2893 96.3907 83.1689 95.917 84.1356 95.569C85.1216 95.221 86.1366 94.96 87.1806 94.786C88.2439 94.5927 89.2493 94.3897 90.1966 94.177C90.6993 94.177 91.1729 94.2157 91.6176 94.293C92.0623 94.3703 92.4296 94.6507 92.7196 95.134ZM103.505 105.371C104.143 105.603 104.733 105.98 105.274 106.502C105.816 107.005 106.26 107.546 106.608 108.126V108.445C106.608 109.218 106.473 109.953 106.202 110.649C105.932 111.326 105.574 111.973 105.129 112.592C104.685 113.191 104.163 113.752 103.563 114.274C102.983 114.777 102.365 115.25 101.707 115.695C101.069 116.12 100.412 116.517 99.7353 116.884C99.078 117.232 98.4497 117.541 97.8503 117.812L96.8063 119.204C96.729 119.61 96.6033 120.18 96.4293 120.915C96.2553 121.669 96.0717 122.539 95.8783 123.525C95.685 124.511 95.4917 125.594 95.2983 126.773C95.105 127.952 94.9503 129.19 94.8343 130.485C94.6797 130.698 94.5153 130.939 94.3413 131.21C94.1673 131.481 93.916 131.655 93.5873 131.732C93.394 131.771 93.2393 131.79 93.1233 131.79C92.7367 131.79 92.3887 131.684 92.0793 131.471C91.7893 131.278 91.596 131.017 91.4993 130.688C91.48 130.475 91.4703 130.282 91.4703 130.108C91.4703 129.934 91.4703 129.76 91.4703 129.586C91.4703 128.619 91.538 127.788 91.6733 127.092C91.7893 126.415 91.9343 125.758 92.1083 125.12C92.2823 124.482 92.4563 123.805 92.6303 123.09C92.8237 122.375 92.988 121.505 93.1233 120.48C92.9107 120.306 92.6303 120.219 92.2823 120.219C91.8957 120.219 91.4897 120.267 91.0643 120.364C90.6197 120.48 90.2137 120.538 89.8463 120.538C89.5563 120.538 89.3243 120.47 89.1503 120.335C88.957 120.219 88.8603 119.968 88.8603 119.581C88.8603 119.33 88.899 119.049 88.9763 118.74C89.4017 118.276 89.8947 117.928 90.4553 117.696C91.016 117.464 91.5767 117.242 92.1373 117.029C92.698 116.836 93.2297 116.594 93.7323 116.304C94.235 115.995 94.641 115.54 94.9503 114.941C95.047 114.67 95.163 114.409 95.2983 114.158C95.453 113.887 95.598 113.626 95.7333 113.375C95.8687 113.124 95.9847 112.872 96.0813 112.621C96.178 112.35 96.2263 112.08 96.2263 111.809C96.2263 111.577 96.1877 111.355 96.1103 111.142C96.0137 110.987 95.8977 110.842 95.7623 110.707C95.627 110.572 95.4917 110.446 95.3563 110.33C95.221 110.195 95.105 110.059 95.0083 109.924C94.9117 109.789 94.8633 109.644 94.8633 109.489C94.8633 109.315 94.931 109.131 95.0663 108.938C95.8977 107.72 96.8837 106.802 98.0243 106.183C99.1843 105.545 100.46 105.226 101.852 105.226C102.123 105.226 102.394 105.245 102.664 105.284C102.954 105.303 103.235 105.332 103.505 105.371ZM104.317 111.345C104.627 111.016 104.897 110.668 105.129 110.301C105.381 109.914 105.506 109.47 105.506 108.967C105.506 108.87 105.497 108.793 105.477 108.735C105.477 108.658 105.468 108.571 105.448 108.474C105.023 107.855 104.472 107.411 103.795 107.14C103.119 106.869 102.413 106.734 101.678 106.734C100.924 106.734 100.228 106.85 99.5903 107.082C99.2037 107.275 98.8847 107.517 98.6333 107.807C98.4013 108.097 98.208 108.416 98.0533 108.764C97.918 109.112 97.8213 109.489 97.7633 109.895C97.7053 110.282 97.6763 110.678 97.6763 111.084C97.6763 111.49 97.6957 111.886 97.7343 112.273C97.773 112.66 97.8117 113.046 97.8503 113.433C97.9083 113.607 98.0147 113.791 98.1693 113.984C98.3433 114.158 98.5463 114.245 98.7783 114.245C99.7643 113.955 100.731 113.588 101.678 113.143C102.626 112.698 103.505 112.099 104.317 111.345ZM120.985 116.478C120.888 116.691 120.84 116.952 120.84 117.261C120.84 117.609 120.898 117.938 121.014 118.247C121.149 118.576 121.294 118.895 121.449 119.204C121.603 119.513 121.739 119.813 121.855 120.103C121.99 120.393 122.058 120.664 122.058 120.915C122.058 121.186 121.971 121.427 121.797 121.64C121.623 121.872 121.313 122.094 120.869 122.307C120.772 122.346 120.675 122.365 120.579 122.365C120.501 122.365 120.414 122.365 120.318 122.365C119.931 122.365 119.593 122.288 119.303 122.133C119.013 121.998 118.713 121.824 118.404 121.611L118.201 121.466C117.814 121.099 117.572 120.683 117.476 120.219C117.379 119.774 117.311 119.301 117.273 118.798C117.253 118.295 117.234 117.793 117.215 117.29C117.195 116.787 117.05 116.314 116.78 115.869C116.432 115.869 116.122 115.946 115.852 116.101C115.6 116.236 115.349 116.391 115.098 116.565C114.885 116.72 114.663 116.884 114.431 117.058C114.218 117.232 113.986 117.358 113.735 117.435C113.464 117.474 113.203 117.503 112.952 117.522C112.7 117.561 112.439 117.58 112.169 117.58C111.569 117.58 110.999 117.503 110.458 117.348C109.916 117.193 109.452 116.942 109.066 116.594C108.524 116.111 108.147 115.618 107.935 115.115C107.722 114.593 107.616 114.071 107.616 113.549C107.616 113.22 107.645 112.901 107.703 112.592C107.78 112.283 107.867 111.964 107.964 111.635C108.118 111.19 108.283 110.755 108.457 110.33C108.65 109.905 108.853 109.479 109.066 109.054C109.278 108.609 109.472 108.184 109.646 107.778C109.82 107.353 109.965 106.927 110.081 106.502L110.139 106.328C110.255 106.038 110.371 105.748 110.487 105.458C110.622 105.149 110.777 104.868 110.951 104.617C111.125 104.346 111.328 104.124 111.56 103.95C111.811 103.757 112.111 103.621 112.459 103.544C112.613 103.602 112.768 103.708 112.923 103.863C113.077 103.998 113.155 104.143 113.155 104.298C113.155 104.414 113.106 104.52 113.01 104.617C112.642 105.081 112.275 105.564 111.908 106.067C111.56 106.57 111.241 107.092 110.951 107.633C110.661 108.155 110.429 108.706 110.255 109.286C110.081 109.847 109.994 110.417 109.994 110.997C109.994 111.674 110.139 112.37 110.429 113.085C110.603 113.491 110.844 113.771 111.154 113.926C111.482 114.081 111.83 114.158 112.198 114.158C112.41 114.158 112.623 114.139 112.836 114.1C113.068 114.061 113.28 114.013 113.474 113.955C114.498 113.491 115.388 112.892 116.142 112.157C116.915 111.422 117.582 110.62 118.143 109.75C118.703 108.861 119.177 107.933 119.564 106.966C119.97 105.98 120.327 105.023 120.637 104.095C120.791 103.94 120.927 103.824 121.043 103.747C121.159 103.65 121.284 103.602 121.42 103.602C121.574 103.602 121.719 103.67 121.855 103.805L122.406 104.646L122.29 105.806C122.096 107.623 121.893 109.421 121.681 111.2C121.487 112.959 121.255 114.719 120.985 116.478ZM132.236 104.965C132.68 104.965 133.115 105.071 133.541 105.284C133.985 105.477 134.372 105.748 134.701 106.096C135.049 106.444 135.329 106.85 135.542 107.314C135.754 107.778 135.861 108.261 135.861 108.764C135.803 108.977 135.725 109.151 135.629 109.286C135.532 109.402 135.416 109.528 135.281 109.663C135.165 109.779 135.039 109.905 134.904 110.04C134.768 110.175 134.643 110.34 134.527 110.533C134.082 110.92 133.579 111.258 133.019 111.548C132.477 111.819 131.926 112.089 131.366 112.36L131.018 112.534C130.844 112.631 130.699 112.708 130.583 112.766C130.486 112.805 130.399 112.853 130.322 112.911C130.264 112.95 130.196 113.008 130.119 113.085C130.041 113.162 129.935 113.269 129.8 113.404C129.645 113.539 129.471 113.752 129.278 114.042C129.084 114.332 128.978 114.554 128.959 114.709V114.738C128.959 114.893 129.055 115.038 129.249 115.173C129.442 115.289 129.664 115.405 129.916 115.521C130.167 115.618 130.409 115.695 130.641 115.753C130.873 115.811 131.018 115.84 131.076 115.84C131.385 115.84 131.704 115.792 132.033 115.695C132.381 115.579 132.729 115.463 133.077 115.347C133.425 115.231 133.763 115.125 134.092 115.028C134.44 114.912 134.759 114.854 135.049 114.854C135.377 114.854 135.745 115.028 136.151 115.376C136.054 115.705 135.957 115.975 135.861 116.188C135.764 116.401 135.648 116.613 135.513 116.826C135.474 116.923 135.358 117.039 135.165 117.174C134.971 117.309 134.749 117.445 134.498 117.58C134.266 117.735 134.024 117.87 133.773 117.986C133.541 118.102 133.338 118.179 133.164 118.218C132.68 118.373 132.178 118.498 131.656 118.595C131.153 118.711 130.641 118.769 130.119 118.769C129.732 118.769 129.355 118.74 128.988 118.682C128.582 118.624 128.166 118.527 127.741 118.392C127.315 118.257 126.929 118.073 126.581 117.841C126.233 117.628 125.943 117.367 125.711 117.058C125.498 116.749 125.392 116.372 125.392 115.927C125.392 115.308 125.527 114.806 125.798 114.419C126.088 114.032 126.465 113.713 126.929 113.462C127.393 113.191 127.905 112.959 128.466 112.766C129.046 112.553 129.626 112.321 130.206 112.07C130.689 111.857 131.153 111.635 131.598 111.403C132.062 111.171 132.468 110.929 132.816 110.678C133.183 110.407 133.473 110.108 133.686 109.779C133.918 109.45 134.034 109.073 134.034 108.648V108.619C134.014 108.484 133.956 108.329 133.86 108.155C133.763 107.981 133.637 107.817 133.483 107.662C133.347 107.488 133.193 107.343 133.019 107.227C132.845 107.111 132.661 107.053 132.468 107.053C132.023 107.053 131.617 107.121 131.25 107.256C130.882 107.372 130.505 107.517 130.119 107.691L128.553 108.271C128.282 108.271 128.021 108.174 127.77 107.981C127.518 107.788 127.344 107.411 127.248 106.85C127.441 106.309 127.625 105.97 127.799 105.835C127.973 105.68 128.176 105.555 128.408 105.458C128.794 105.303 129.307 105.187 129.945 105.11C130.602 105.013 131.366 104.965 132.236 104.965ZM146.683 107.749C146.741 108.058 146.79 108.368 146.828 108.677C146.867 108.986 146.886 109.286 146.886 109.576C146.886 110.678 146.674 111.712 146.248 112.679C145.823 113.646 145.195 114.496 144.363 115.231C143.88 115.444 143.368 115.627 142.826 115.782C142.304 115.917 141.773 115.985 141.231 115.985C140.825 115.985 140.419 115.937 140.013 115.84C139.627 115.743 139.24 115.579 138.853 115.347C138.544 115.076 138.331 114.767 138.215 114.419C138.099 114.052 138.041 113.675 138.041 113.288C138.041 113.056 138.061 112.824 138.099 112.592C138.138 112.36 138.177 112.138 138.215 111.925C138.389 111.229 138.699 110.601 139.143 110.04C139.588 109.46 140.11 108.957 140.709 108.532C141.309 108.087 141.956 107.72 142.652 107.43C143.348 107.14 144.035 106.927 144.711 106.792C144.808 106.773 144.895 106.763 144.972 106.763C145.05 106.744 145.127 106.734 145.204 106.734C145.9 106.734 146.393 107.072 146.683 107.749ZM143.377 113.027C143.706 112.872 144.035 112.64 144.363 112.331C144.711 112.002 144.885 111.635 144.885 111.229C144.885 111.016 144.827 110.804 144.711 110.591C144.518 110.204 144.257 109.943 143.928 109.808C143.619 109.653 143.271 109.576 142.884 109.576C142.807 109.576 142.73 109.576 142.652 109.576C142.575 109.576 142.488 109.586 142.391 109.605C141.966 109.721 141.55 109.924 141.144 110.214C140.758 110.504 140.439 110.871 140.187 111.316C140.013 111.548 139.926 111.809 139.926 112.099C139.926 112.466 140.052 112.776 140.303 113.027C140.477 113.201 140.651 113.327 140.825 113.404C140.999 113.462 141.193 113.491 141.405 113.491C141.734 113.491 142.063 113.433 142.391 113.317C142.72 113.201 143.049 113.104 143.377 113.027ZM160.316 105.371C160.954 105.603 161.544 105.98 162.085 106.502C162.626 107.005 163.071 107.546 163.419 108.126V108.445C163.419 109.218 163.284 109.953 163.013 110.649C162.742 111.326 162.385 111.973 161.94 112.592C161.495 113.191 160.973 113.752 160.374 114.274C159.794 114.777 159.175 115.25 158.518 115.695C157.88 116.12 157.223 116.517 156.546 116.884C155.889 117.232 155.26 117.541 154.661 117.812L153.617 119.204C153.54 119.61 153.414 120.18 153.24 120.915C153.066 121.669 152.882 122.539 152.689 123.525C152.496 124.511 152.302 125.594 152.109 126.773C151.916 127.952 151.761 129.19 151.645 130.485C151.49 130.698 151.326 130.939 151.152 131.21C150.978 131.481 150.727 131.655 150.398 131.732C150.205 131.771 150.05 131.79 149.934 131.79C149.547 131.79 149.199 131.684 148.89 131.471C148.6 131.278 148.407 131.017 148.31 130.688C148.291 130.475 148.281 130.282 148.281 130.108C148.281 129.934 148.281 129.76 148.281 129.586C148.281 128.619 148.349 127.788 148.484 127.092C148.6 126.415 148.745 125.758 148.919 125.12C149.093 124.482 149.267 123.805 149.441 123.09C149.634 122.375 149.799 121.505 149.934 120.48C149.721 120.306 149.441 120.219 149.093 120.219C148.706 120.219 148.3 120.267 147.875 120.364C147.43 120.48 147.024 120.538 146.657 120.538C146.367 120.538 146.135 120.47 145.961 120.335C145.768 120.219 145.671 119.968 145.671 119.581C145.671 119.33 145.71 119.049 145.787 118.74C146.212 118.276 146.705 117.928 147.266 117.696C147.827 117.464 148.387 117.242 148.948 117.029C149.509 116.836 150.04 116.594 150.543 116.304C151.046 115.995 151.452 115.54 151.761 114.941C151.858 114.67 151.974 114.409 152.109 114.158C152.264 113.887 152.409 113.626 152.544 113.375C152.679 113.124 152.795 112.872 152.892 112.621C152.989 112.35 153.037 112.08 153.037 111.809C153.037 111.577 152.998 111.355 152.921 111.142C152.824 110.987 152.708 110.842 152.573 110.707C152.438 110.572 152.302 110.446 152.167 110.33C152.032 110.195 151.916 110.059 151.819 109.924C151.722 109.789 151.674 109.644 151.674 109.489C151.674 109.315 151.742 109.131 151.877 108.938C152.708 107.72 153.694 106.802 154.835 106.183C155.995 105.545 157.271 105.226 158.663 105.226C158.934 105.226 159.204 105.245 159.475 105.284C159.765 105.303 160.045 105.332 160.316 105.371ZM161.128 111.345C161.437 111.016 161.708 110.668 161.94 110.301C162.191 109.914 162.317 109.47 162.317 108.967C162.317 108.87 162.307 108.793 162.288 108.735C162.288 108.658 162.278 108.571 162.259 108.474C161.834 107.855 161.283 107.411 160.606 107.14C159.929 106.869 159.224 106.734 158.489 106.734C157.735 106.734 157.039 106.85 156.401 107.082C156.014 107.275 155.695 107.517 155.444 107.807C155.212 108.097 155.019 108.416 154.864 108.764C154.729 109.112 154.632 109.489 154.574 109.895C154.516 110.282 154.487 110.678 154.487 111.084C154.487 111.49 154.506 111.886 154.545 112.273C154.584 112.66 154.622 113.046 154.661 113.433C154.719 113.607 154.825 113.791 154.98 113.984C155.154 114.158 155.357 114.245 155.589 114.245C156.575 113.955 157.542 113.588 158.489 113.143C159.436 112.698 160.316 112.099 161.128 111.345ZM170.69 100.528C170.69 100.973 170.671 101.321 170.632 101.572C170.613 101.804 170.555 102.007 170.458 102.181C170.381 102.336 170.265 102.5 170.11 102.674C169.956 102.829 169.743 103.061 169.472 103.37C169.163 103.737 168.883 104.027 168.631 104.24C168.38 104.433 168.061 104.53 167.674 104.53C167.52 104.53 167.355 104.511 167.181 104.472C167.007 104.433 166.814 104.385 166.601 104.327C166.466 104.288 166.36 104.211 166.282 104.095C166.205 103.96 166.157 103.824 166.137 103.689C166.137 103.534 166.147 103.389 166.166 103.254C166.205 103.099 166.253 102.974 166.311 102.877C166.698 102.413 166.998 102.055 167.21 101.804C167.423 101.533 167.626 101.311 167.819 101.137C168.032 100.963 168.283 100.799 168.573 100.644C168.863 100.489 169.279 100.286 169.82 100.035C170.014 99.9963 170.188 100.006 170.342 100.064C170.516 100.122 170.632 100.277 170.69 100.528ZM167.442 113.375C167.539 113.626 167.607 113.887 167.645 114.158C167.684 114.409 167.703 114.67 167.703 114.941C167.703 115.521 167.645 116.053 167.529 116.536C167.375 116.768 167.152 116.942 166.862 117.058C166.592 117.174 166.34 117.155 166.108 117C165.838 116.71 165.644 116.381 165.528 116.014C165.412 115.627 165.354 115.221 165.354 114.796C165.354 114.313 165.412 113.81 165.528 113.288C165.664 112.747 165.828 112.225 166.021 111.722C166.234 111.2 166.456 110.717 166.688 110.272C166.92 109.808 167.143 109.402 167.355 109.054C167.452 109.015 167.539 108.957 167.616 108.88C167.713 108.803 167.81 108.861 167.906 109.054L167.442 113.375ZM185.158 116.478C185.062 116.691 185.013 116.952 185.013 117.261C185.013 117.609 185.071 117.938 185.187 118.247C185.323 118.576 185.468 118.895 185.622 119.204C185.777 119.513 185.912 119.813 186.028 120.103C186.164 120.393 186.231 120.664 186.231 120.915C186.231 121.186 186.144 121.427 185.97 121.64C185.796 121.872 185.487 122.094 185.042 122.307C184.946 122.346 184.849 122.365 184.752 122.365C184.675 122.365 184.588 122.365 184.491 122.365C184.105 122.365 183.766 122.288 183.476 122.133C183.186 121.998 182.887 121.824 182.577 121.611L182.374 121.466C181.988 121.099 181.746 120.683 181.649 120.219C181.553 119.774 181.485 119.301 181.446 118.798C181.427 118.295 181.408 117.793 181.388 117.29C181.369 116.787 181.224 116.314 180.953 115.869C180.605 115.869 180.296 115.946 180.025 116.101C179.774 116.236 179.523 116.391 179.271 116.565C179.059 116.72 178.836 116.884 178.604 117.058C178.392 117.232 178.16 117.358 177.908 117.435C177.638 117.474 177.377 117.503 177.125 117.522C176.874 117.561 176.613 117.58 176.342 117.58C175.743 117.58 175.173 117.503 174.631 117.348C174.09 117.193 173.626 116.942 173.239 116.594C172.698 116.111 172.321 115.618 172.108 115.115C171.896 114.593 171.789 114.071 171.789 113.549C171.789 113.22 171.818 112.901 171.876 112.592C171.954 112.283 172.041 111.964 172.137 111.635C172.292 111.19 172.456 110.755 172.63 110.33C172.824 109.905 173.027 109.479 173.239 109.054C173.452 108.609 173.645 108.184 173.819 107.778C173.993 107.353 174.138 106.927 174.254 106.502L174.312 106.328C174.428 106.038 174.544 105.748 174.66 105.458C174.796 105.149 174.95 104.868 175.124 104.617C175.298 104.346 175.501 104.124 175.733 103.95C175.985 103.757 176.284 103.621 176.632 103.544C176.787 103.602 176.942 103.708 177.096 103.863C177.251 103.998 177.328 104.143 177.328 104.298C177.328 104.414 177.28 104.52 177.183 104.617C176.816 105.081 176.449 105.564 176.081 106.067C175.733 106.57 175.414 107.092 175.124 107.633C174.834 108.155 174.602 108.706 174.428 109.286C174.254 109.847 174.167 110.417 174.167 110.997C174.167 111.674 174.312 112.37 174.602 113.085C174.776 113.491 175.018 113.771 175.327 113.926C175.656 114.081 176.004 114.158 176.371 114.158C176.584 114.158 176.797 114.139 177.009 114.1C177.241 114.061 177.454 114.013 177.647 113.955C178.672 113.491 179.561 112.892 180.315 112.157C181.089 111.422 181.756 110.62 182.316 109.75C182.877 108.861 183.351 107.933 183.737 106.966C184.143 105.98 184.501 105.023 184.81 104.095C184.965 103.94 185.1 103.824 185.216 103.747C185.332 103.65 185.458 103.602 185.593 103.602C185.748 103.602 185.893 103.67 186.028 103.805L186.579 104.646L186.463 105.806C186.27 107.623 186.067 109.421 185.854 111.2C185.661 112.959 185.429 114.719 185.158 116.478ZM179.242 98.353C179.32 98.7977 179.455 99.1747 179.648 99.484C179.861 99.7933 180.132 100.054 180.46 100.267C180.576 100.344 180.712 100.422 180.866 100.499C181.04 100.557 181.205 100.615 181.359 100.673C181.533 100.731 181.688 100.779 181.823 100.818C181.978 100.837 182.094 100.847 182.171 100.847C182.539 100.808 182.896 100.683 183.244 100.47C183.612 100.238 183.95 99.9577 184.259 99.629C184.588 99.281 184.878 98.904 185.129 98.498C185.381 98.0727 185.584 97.6473 185.738 97.222C185.777 97.1833 185.816 97.1543 185.854 97.135C185.893 97.1157 185.912 97.135 185.912 97.193C185.97 97.6957 185.874 98.1887 185.622 98.672C185.39 99.1553 185.091 99.6 184.723 100.006C184.375 100.412 183.989 100.77 183.563 101.079C183.157 101.369 182.8 101.572 182.49 101.688C182.336 101.746 182.065 101.833 181.678 101.949C181.311 102.046 181.021 102.094 180.808 102.094C180.054 102.075 179.513 101.901 179.184 101.572C178.875 101.224 178.691 100.837 178.633 100.412C178.575 99.9673 178.604 99.542 178.72 99.136C178.836 98.7107 178.972 98.4013 179.126 98.208L179.184 98.179C179.223 98.1983 179.242 98.2563 179.242 98.353ZM90.5821 134.165C90.6014 134.242 90.6111 134.31 90.6111 134.368C90.6304 134.426 90.6401 134.484 90.6401 134.542C90.6401 134.89 90.5241 135.151 90.2921 135.325C90.0794 135.499 89.8184 135.634 89.5091 135.731C89.2191 135.808 88.9001 135.876 88.5521 135.934C88.2234 135.992 87.9431 136.089 87.7111 136.224C86.7831 136.881 85.8744 137.606 84.9851 138.399C84.1151 139.172 83.2934 140.013 82.5201 140.922C81.7661 141.811 81.0894 142.749 80.4901 143.735C79.9101 144.721 79.4461 145.746 79.0981 146.809C79.0594 146.964 79.0401 147.109 79.0401 147.244C79.0401 147.36 79.0401 147.495 79.0401 147.65C79.0401 148.462 79.2334 149.206 79.6201 149.883C80.0261 150.56 80.5771 151.101 81.2731 151.507C81.9691 151.7 82.6554 151.797 83.3321 151.797C84.4341 151.797 85.4781 151.594 86.4641 151.188C87.4694 150.782 88.4554 150.357 89.4221 149.912C89.7121 149.951 90.0021 150.028 90.2921 150.144C90.5821 150.241 90.7561 150.463 90.8141 150.811C90.6401 151.604 90.2341 152.251 89.5961 152.754C88.9581 153.257 88.2524 153.653 87.4791 153.943C86.7058 154.252 85.9324 154.465 85.1591 154.581C84.4051 154.697 83.8154 154.755 83.3901 154.755C82.6748 154.755 81.9401 154.668 81.1861 154.494C80.4514 154.32 79.7748 154.02 79.1561 153.595C78.5568 153.189 78.0638 152.657 77.6771 152C77.2904 151.323 77.0971 150.492 77.0971 149.506C77.0971 148.617 77.2518 147.756 77.5611 146.925C77.8704 146.074 78.2378 145.243 78.6631 144.431C79.1078 143.619 79.5524 142.826 79.9971 142.053C80.4611 141.26 80.8478 140.468 81.1571 139.675C81.4471 138.96 81.8241 138.264 82.2881 137.587C82.7714 136.891 83.3128 136.253 83.9121 135.673C84.5308 135.093 85.1881 134.581 85.8841 134.136C86.5801 133.691 87.3051 133.353 88.0591 133.121C88.3104 133.121 88.5618 133.131 88.8131 133.15C89.0838 133.15 89.3351 133.189 89.5671 133.266C89.8184 133.324 90.0311 133.43 90.2051 133.585C90.3791 133.72 90.5048 133.914 90.5821 134.165ZM94.9167 138.37C94.9167 138.641 94.8877 138.921 94.8297 139.211C94.7717 139.501 94.704 139.81 94.6267 140.139C94.5494 140.448 94.4817 140.767 94.4237 141.096C94.3657 141.405 94.3367 141.715 94.3367 142.024C94.3367 142.449 94.4237 142.836 94.5977 143.184C94.7717 143.532 95.081 143.822 95.5257 144.054C96.299 143.919 97.0047 143.6 97.6427 143.097C98.2807 142.575 98.8897 142.014 99.4697 141.415C100.05 140.796 100.639 140.207 101.239 139.646C101.838 139.066 102.486 138.641 103.182 138.37C103.414 138.467 103.53 138.67 103.53 138.979C103.53 139.23 103.462 139.424 103.327 139.559C102.805 140.236 102.186 140.874 101.471 141.473C100.775 142.053 100.098 142.643 99.4407 143.242C98.7834 143.841 98.213 144.47 97.7297 145.127C97.2464 145.784 96.966 146.529 96.8887 147.36C97.1594 147.631 97.459 147.814 97.7877 147.911C98.1164 147.988 98.4547 148.027 98.8027 148.027C99.3634 148.027 99.9434 147.959 100.543 147.824C101.161 147.689 101.78 147.621 102.399 147.621C102.495 147.621 102.602 147.621 102.718 147.621C102.834 147.621 102.94 147.631 103.037 147.65C103.636 147.65 104.206 147.776 104.748 148.027C105.308 148.259 105.734 148.636 106.024 149.158C106.004 149.622 105.888 149.989 105.676 150.26C105.482 150.511 105.221 150.695 104.893 150.811C104.583 150.927 104.226 150.995 103.82 151.014C103.414 151.033 103.008 151.043 102.602 151.043H102.341C101.915 151.043 101.5 151.062 101.094 151.101C100.688 151.14 100.33 151.246 100.021 151.42C99.924 151.401 99.837 151.391 99.7597 151.391C99.6824 151.372 99.5954 151.362 99.4987 151.362C99.0154 151.362 98.5127 151.459 97.9907 151.652C97.488 151.826 96.9854 152.019 96.4827 152.232C95.9994 152.464 95.5257 152.667 95.0617 152.841C94.5977 153.034 94.1627 153.131 93.7567 153.131C93.2734 153.131 92.848 152.957 92.4807 152.609C92.1134 152.261 91.8234 151.613 91.6107 150.666C91.5914 150.511 91.5817 150.366 91.5817 150.231C91.5817 150.096 91.5817 149.951 91.5817 149.796C91.5817 148.849 91.6784 147.921 91.8717 147.012C92.065 146.084 92.2777 145.166 92.5097 144.257C92.761 143.329 92.993 142.391 93.2057 141.444C93.4184 140.497 93.544 139.52 93.5827 138.515C93.6214 138.36 93.7277 138.215 93.9017 138.08C94.095 137.945 94.2787 137.877 94.4527 137.877C94.704 137.877 94.8587 138.041 94.9167 138.37ZM115.97 142.749C116.028 143.058 116.076 143.368 116.115 143.677C116.153 143.986 116.173 144.286 116.173 144.576C116.173 145.678 115.96 146.712 115.535 147.679C115.109 148.646 114.481 149.496 113.65 150.231C113.166 150.444 112.654 150.627 112.113 150.782C111.591 150.917 111.059 150.985 110.518 150.985C110.112 150.985 109.706 150.937 109.3 150.84C108.913 150.743 108.526 150.579 108.14 150.347C107.83 150.076 107.618 149.767 107.502 149.419C107.386 149.052 107.328 148.675 107.328 148.288C107.328 148.056 107.347 147.824 107.386 147.592C107.424 147.36 107.463 147.138 107.502 146.925C107.676 146.229 107.985 145.601 108.43 145.04C108.874 144.46 109.396 143.957 109.996 143.532C110.595 143.087 111.243 142.72 111.939 142.43C112.635 142.14 113.321 141.927 113.998 141.792C114.094 141.773 114.181 141.763 114.259 141.763C114.336 141.744 114.413 141.734 114.491 141.734C115.187 141.734 115.68 142.072 115.97 142.749ZM112.664 148.027C112.992 147.872 113.321 147.64 113.65 147.331C113.998 147.002 114.172 146.635 114.172 146.229C114.172 146.016 114.114 145.804 113.998 145.591C113.804 145.204 113.543 144.943 113.215 144.808C112.905 144.653 112.557 144.576 112.171 144.576C112.093 144.576 112.016 144.576 111.939 144.576C111.861 144.576 111.774 144.586 111.678 144.605C111.252 144.721 110.837 144.924 110.431 145.214C110.044 145.504 109.725 145.871 109.474 146.316C109.3 146.548 109.213 146.809 109.213 147.099C109.213 147.466 109.338 147.776 109.59 148.027C109.764 148.201 109.938 148.327 110.112 148.404C110.286 148.462 110.479 148.491 110.692 148.491C111.02 148.491 111.349 148.433 111.678 148.317C112.006 148.201 112.335 148.104 112.664 148.027ZM129.4 133.382C129.709 133.653 130.018 133.933 130.328 134.223C130.637 134.513 130.908 134.822 131.14 135.151C131.391 135.48 131.594 135.828 131.749 136.195C131.903 136.562 131.981 136.959 131.981 137.384C131.981 137.809 131.894 138.254 131.72 138.718C131.7 139.027 131.594 139.308 131.401 139.559C131.227 139.791 131.033 140.023 130.821 140.255C130.627 140.468 130.444 140.7 130.27 140.951C130.115 141.183 130.038 141.444 130.038 141.734C130.038 141.947 130.096 142.179 130.212 142.43C130.618 142.875 130.956 143.377 131.227 143.938C131.497 144.479 131.633 145.059 131.633 145.678C131.633 145.987 131.584 146.335 131.488 146.722C131.41 147.766 131.091 148.597 130.531 149.216C129.97 149.835 129.284 150.328 128.472 150.695C127.679 151.043 126.838 151.333 125.949 151.565C125.059 151.778 124.238 152.019 123.484 152.29C123 152.696 122.633 153.16 122.382 153.682C122.13 154.223 121.937 154.794 121.802 155.393C121.686 155.992 121.589 156.601 121.512 157.22C121.454 157.839 121.367 158.438 121.251 159.018C121.135 159.54 121.077 160.081 121.077 160.642C121.096 161.222 121.077 161.773 121.019 162.295C120.98 162.836 120.864 163.329 120.671 163.774C120.497 164.238 120.158 164.615 119.656 164.905C119.443 164.963 119.259 164.992 119.105 164.992C118.795 164.992 118.515 164.924 118.264 164.789C118.032 164.654 117.8 164.499 117.568 164.325C117.123 163.88 116.901 163.358 116.901 162.759C116.901 162.546 116.93 162.334 116.988 162.121C117.471 161.483 117.8 160.768 117.974 159.975C118.148 159.202 118.273 158.409 118.351 157.597C118.447 156.785 118.563 155.983 118.699 155.19C118.834 154.397 119.114 153.663 119.54 152.986C119.52 152.541 119.356 152.184 119.047 151.913C118.737 151.642 118.399 151.391 118.032 151.159C117.684 150.908 117.365 150.637 117.075 150.347C116.785 150.057 116.64 149.67 116.64 149.187V149.042C116.872 148.791 117.123 148.626 117.394 148.549C117.664 148.452 117.935 148.404 118.206 148.404C118.592 148.404 118.969 148.452 119.337 148.549C119.723 148.626 120.1 148.665 120.468 148.665C120.912 148.665 121.299 148.559 121.628 148.346C122.072 147.843 122.469 147.312 122.817 146.751C123.165 146.171 123.339 145.572 123.339 144.953C123.339 144.74 123.31 144.518 123.252 144.286C123.194 144.151 123.097 144.035 122.962 143.938C122.826 143.822 122.691 143.716 122.556 143.619C122.44 143.522 122.333 143.426 122.237 143.329C122.14 143.213 122.092 143.097 122.092 142.981C122.092 142.865 122.13 142.759 122.208 142.662C122.73 142.43 123.242 142.15 123.745 141.821C124.267 141.492 124.644 141.038 124.876 140.458C124.914 140.187 124.953 139.897 124.992 139.588C125.05 139.279 125.079 138.979 125.079 138.689C125.079 138.438 125.05 138.177 124.992 137.906C124.624 137.635 124.16 137.49 123.6 137.471C123.058 137.452 122.527 137.432 122.005 137.413C121.502 137.374 121.067 137.278 120.7 137.123C120.332 136.968 120.149 136.63 120.149 136.108C120.149 135.953 120.178 135.741 120.236 135.47C120.564 135.103 120.941 134.832 121.367 134.658C121.811 134.465 122.275 134.32 122.759 134.223C123.242 134.107 123.716 134.001 124.18 133.904C124.644 133.807 125.079 133.672 125.485 133.498C125.891 133.305 126.229 133.044 126.5 132.715C126.79 132.367 126.983 131.893 127.08 131.294C127.196 130.965 127.292 130.627 127.37 130.279C127.447 129.931 127.544 129.602 127.66 129.293C127.795 128.964 127.969 128.674 128.182 128.423C128.394 128.152 128.684 127.949 129.052 127.814C129.071 127.814 129.081 127.824 129.081 127.843C129.1 127.843 129.119 127.843 129.139 127.843C129.371 127.901 129.603 127.988 129.835 128.104C130.086 128.201 130.212 128.413 130.212 128.742C130.212 129.148 130.163 129.544 130.067 129.931C129.989 130.298 129.902 130.675 129.806 131.062C129.709 131.429 129.612 131.806 129.516 132.193C129.438 132.58 129.4 132.976 129.4 133.382ZM127.66 137.558C127.563 137.925 127.408 138.302 127.196 138.689C127.002 139.056 126.906 139.424 126.906 139.791C126.906 139.946 126.935 140.1 126.993 140.255C127.051 140.39 127.157 140.535 127.312 140.69C127.389 140.709 127.495 140.719 127.631 140.719C128.037 140.719 128.433 140.555 128.82 140.226C129.148 139.955 129.371 139.646 129.487 139.298C129.603 138.95 129.661 138.583 129.661 138.196C129.661 138.099 129.661 137.993 129.661 137.877C129.661 137.761 129.651 137.655 129.632 137.558C129.535 137.345 129.38 137.181 129.168 137.065C128.974 136.93 128.771 136.862 128.559 136.862C128.346 136.862 128.153 136.92 127.979 137.036C127.824 137.133 127.718 137.307 127.66 137.558ZM130.212 144.17C129.883 143.667 129.487 143.319 129.023 143.126C128.578 142.933 128.085 142.836 127.544 142.836C127.408 142.836 127.273 142.846 127.138 142.865C127.002 142.865 126.867 142.875 126.732 142.894C126.287 142.952 125.929 143.097 125.659 143.329C125.407 143.561 125.195 143.841 125.021 144.17C124.847 144.499 124.702 144.847 124.586 145.214C124.47 145.581 124.334 145.929 124.18 146.258L123.803 148.23C123.803 148.423 123.832 148.607 123.89 148.781C123.967 148.955 124.102 149.119 124.296 149.274C125.282 149.216 126.219 149.071 127.109 148.839C127.998 148.607 128.8 148.095 129.516 147.302C130.076 146.683 130.357 145.978 130.357 145.185C130.357 145.03 130.347 144.866 130.328 144.692C130.308 144.518 130.27 144.344 130.212 144.17ZM141.883 142.749C141.941 143.058 141.989 143.368 142.028 143.677C142.067 143.986 142.086 144.286 142.086 144.576C142.086 145.678 141.873 146.712 141.448 147.679C141.023 148.646 140.394 149.496 139.563 150.231C139.08 150.444 138.567 150.627 138.026 150.782C137.504 150.917 136.972 150.985 136.431 150.985C136.025 150.985 135.619 150.937 135.213 150.84C134.826 150.743 134.44 150.579 134.053 150.347C133.744 150.076 133.531 149.767 133.415 149.419C133.299 149.052 133.241 148.675 133.241 148.288C133.241 148.056 133.26 147.824 133.299 147.592C133.338 147.36 133.376 147.138 133.415 146.925C133.589 146.229 133.898 145.601 134.343 145.04C134.788 144.46 135.31 143.957 135.909 143.532C136.508 143.087 137.156 142.72 137.852 142.43C138.548 142.14 139.234 141.927 139.911 141.792C140.008 141.773 140.095 141.763 140.172 141.763C140.249 141.744 140.327 141.734 140.404 141.734C141.1 141.734 141.593 142.072 141.883 142.749ZM138.577 148.027C138.906 147.872 139.234 147.64 139.563 147.331C139.911 147.002 140.085 146.635 140.085 146.229C140.085 146.016 140.027 145.804 139.911 145.591C139.718 145.204 139.457 144.943 139.128 144.808C138.819 144.653 138.471 144.576 138.084 144.576C138.007 144.576 137.929 144.576 137.852 144.576C137.775 144.576 137.688 144.586 137.591 144.605C137.166 144.721 136.75 144.924 136.344 145.214C135.957 145.504 135.638 145.871 135.387 146.316C135.213 146.548 135.126 146.809 135.126 147.099C135.126 147.466 135.252 147.776 135.503 148.027C135.677 148.201 135.851 148.327 136.025 148.404C136.199 148.462 136.392 148.491 136.605 148.491C136.934 148.491 137.262 148.433 137.591 148.317C137.92 148.201 138.248 148.104 138.577 148.027ZM155.516 140.371C156.154 140.603 156.743 140.98 157.285 141.502C157.826 142.005 158.271 142.546 158.619 143.126V143.445C158.619 144.218 158.483 144.953 158.213 145.649C157.942 146.326 157.584 146.973 157.14 147.592C156.695 148.191 156.173 148.752 155.574 149.274C154.994 149.777 154.375 150.25 153.718 150.695C153.08 151.12 152.422 151.517 151.746 151.884C151.088 152.232 150.46 152.541 149.861 152.812L148.817 154.204C148.739 154.61 148.614 155.18 148.44 155.915C148.266 156.669 148.082 157.539 147.889 158.525C147.695 159.511 147.502 160.594 147.309 161.773C147.115 162.952 146.961 164.19 146.845 165.485C146.69 165.698 146.526 165.939 146.352 166.21C146.178 166.481 145.926 166.655 145.598 166.732C145.404 166.771 145.25 166.79 145.134 166.79C144.747 166.79 144.399 166.684 144.09 166.471C143.8 166.278 143.606 166.017 143.51 165.688C143.49 165.475 143.481 165.282 143.481 165.108C143.481 164.934 143.481 164.76 143.481 164.586C143.481 163.619 143.548 162.788 143.684 162.092C143.8 161.415 143.945 160.758 144.119 160.12C144.293 159.482 144.467 158.805 144.641 158.09C144.834 157.375 144.998 156.505 145.134 155.48C144.921 155.306 144.641 155.219 144.293 155.219C143.906 155.219 143.5 155.267 143.075 155.364C142.63 155.48 142.224 155.538 141.857 155.538C141.567 155.538 141.335 155.47 141.161 155.335C140.967 155.219 140.871 154.968 140.871 154.581C140.871 154.33 140.909 154.049 140.987 153.74C141.412 153.276 141.905 152.928 142.466 152.696C143.026 152.464 143.587 152.242 144.148 152.029C144.708 151.836 145.24 151.594 145.743 151.304C146.245 150.995 146.651 150.54 146.961 149.941C147.057 149.67 147.173 149.409 147.309 149.158C147.463 148.887 147.608 148.626 147.744 148.375C147.879 148.124 147.995 147.872 148.092 147.621C148.188 147.35 148.237 147.08 148.237 146.809C148.237 146.577 148.198 146.355 148.121 146.142C148.024 145.987 147.908 145.842 147.773 145.707C147.637 145.572 147.502 145.446 147.367 145.33C147.231 145.195 147.115 145.059 147.019 144.924C146.922 144.789 146.874 144.644 146.874 144.489C146.874 144.315 146.941 144.131 147.077 143.938C147.908 142.72 148.894 141.802 150.035 141.183C151.195 140.545 152.471 140.226 153.863 140.226C154.133 140.226 154.404 140.245 154.675 140.284C154.965 140.303 155.245 140.332 155.516 140.371ZM156.328 146.345C156.637 146.016 156.908 145.668 157.14 145.301C157.391 144.914 157.517 144.47 157.517 143.967C157.517 143.87 157.507 143.793 157.488 143.735C157.488 143.658 157.478 143.571 157.459 143.474C157.033 142.855 156.482 142.411 155.806 142.14C155.129 141.869 154.423 141.734 153.689 141.734C152.935 141.734 152.239 141.85 151.601 142.082C151.214 142.275 150.895 142.517 150.644 142.807C150.412 143.097 150.218 143.416 150.064 143.764C149.928 144.112 149.832 144.489 149.774 144.895C149.716 145.282 149.687 145.678 149.687 146.084C149.687 146.49 149.706 146.886 149.745 147.273C149.783 147.66 149.822 148.046 149.861 148.433C149.919 148.607 150.025 148.791 150.18 148.984C150.354 149.158 150.557 149.245 150.789 149.245C151.775 148.955 152.741 148.588 153.689 148.143C154.636 147.698 155.516 147.099 156.328 146.345ZM168.674 142.749C168.732 143.058 168.78 143.368 168.819 143.677C168.858 143.986 168.877 144.286 168.877 144.576C168.877 145.678 168.664 146.712 168.239 147.679C167.814 148.646 167.185 149.496 166.354 150.231C165.871 150.444 165.358 150.627 164.817 150.782C164.295 150.917 163.763 150.985 163.222 150.985C162.816 150.985 162.41 150.937 162.004 150.84C161.617 150.743 161.231 150.579 160.844 150.347C160.535 150.076 160.322 149.767 160.206 149.419C160.09 149.052 160.032 148.675 160.032 148.288C160.032 148.056 160.051 147.824 160.09 147.592C160.129 147.36 160.167 147.138 160.206 146.925C160.38 146.229 160.689 145.601 161.134 145.04C161.579 144.46 162.101 143.957 162.7 143.532C163.299 143.087 163.947 142.72 164.643 142.43C165.339 142.14 166.025 141.927 166.702 141.792C166.799 141.773 166.886 141.763 166.963 141.763C167.04 141.744 167.118 141.734 167.195 141.734C167.891 141.734 168.384 142.072 168.674 142.749ZM165.368 148.027C165.697 147.872 166.025 147.64 166.354 147.331C166.702 147.002 166.876 146.635 166.876 146.229C166.876 146.016 166.818 145.804 166.702 145.591C166.509 145.204 166.248 144.943 165.919 144.808C165.61 144.653 165.262 144.576 164.875 144.576C164.798 144.576 164.72 144.576 164.643 144.576C164.566 144.576 164.479 144.586 164.382 144.605C163.957 144.721 163.541 144.924 163.135 145.214C162.748 145.504 162.429 145.871 162.178 146.316C162.004 146.548 161.917 146.809 161.917 147.099C161.917 147.466 162.043 147.776 162.294 148.027C162.468 148.201 162.642 148.327 162.816 148.404C162.99 148.462 163.183 148.491 163.396 148.491C163.725 148.491 164.053 148.433 164.382 148.317C164.711 148.201 165.039 148.104 165.368 148.027ZM177.174 140.023C177.541 139.907 177.879 139.955 178.189 140.168C178.517 140.381 178.778 140.651 178.972 140.98C178.972 141.386 178.885 141.802 178.711 142.227C178.556 142.652 178.372 143.087 178.16 143.532C177.947 143.957 177.734 144.383 177.522 144.808C177.309 145.214 177.154 145.61 177.058 145.997C177.232 147.737 177.386 149.255 177.522 150.55C177.657 151.845 177.773 153.054 177.87 154.175C177.986 155.296 178.073 156.408 178.131 157.51C178.189 158.631 178.218 159.888 178.218 161.28C178.218 161.821 178.208 162.382 178.189 162.962C178.189 163.561 178.179 164.199 178.16 164.876C178.024 165.301 177.831 165.746 177.58 166.21C177.348 166.674 177.067 167.109 176.739 167.515C176.41 167.921 176.043 168.269 175.637 168.559C175.231 168.849 174.805 169.042 174.361 169.139C174.129 169.178 173.906 169.207 173.694 169.226C173.481 169.265 173.268 169.284 173.056 169.284C172.07 169.284 171.161 169.062 170.33 168.617C169.498 168.172 168.725 167.592 168.01 166.877C167.217 166.258 166.656 165.504 166.328 164.615C165.999 163.726 165.835 162.798 165.835 161.831C165.835 161.502 165.844 161.174 165.864 160.845C165.883 160.516 165.912 160.188 165.951 159.859C166.26 159.163 166.637 158.438 167.082 157.684C167.507 156.949 168.01 156.253 168.59 155.596C169.17 154.958 169.817 154.407 170.533 153.943C171.267 153.498 172.07 153.228 172.94 153.131C173.887 153.054 174.738 153.344 175.492 154.001C175.646 153.614 175.724 153.266 175.724 152.957C175.724 152.686 175.685 152.396 175.608 152.087C175.55 151.778 175.501 151.333 175.463 150.753C175.424 150.192 175.385 149.835 175.347 149.68C175.308 149.525 175.269 149.409 175.231 149.332C175.192 149.235 175.163 149.1 175.144 148.926C175.144 148.752 175.153 148.375 175.173 147.795C174.941 147.544 174.67 147.321 174.361 147.128C174.051 146.915 173.752 146.703 173.462 146.49C173.191 146.258 172.949 146.026 172.737 145.794C172.543 145.543 172.447 145.243 172.447 144.895C172.447 144.644 172.505 144.373 172.621 144.083C172.737 143.561 172.949 143.087 173.259 142.662C173.568 142.237 173.926 141.86 174.332 141.531C174.757 141.183 175.211 140.883 175.695 140.632C176.197 140.381 176.69 140.178 177.174 140.023ZM172.65 164.702C173.288 164.141 173.752 163.484 174.042 162.73C174.351 161.976 174.573 161.174 174.709 160.323C174.844 159.472 174.931 158.602 174.97 157.713C175.008 156.843 175.086 155.992 175.202 155.161C174.95 155.335 174.612 155.422 174.187 155.422C173.839 155.422 173.481 155.383 173.114 155.306C172.746 155.229 172.398 155.19 172.07 155.19C171.702 155.383 171.335 155.625 170.968 155.915C170.6 156.224 170.262 156.553 169.953 156.901C169.643 157.268 169.382 157.645 169.17 158.032C168.938 158.438 168.773 158.844 168.677 159.25C168.561 159.617 168.474 159.946 168.416 160.236C168.338 160.526 168.3 160.797 168.3 161.048C168.3 161.473 168.416 161.85 168.648 162.179C168.86 162.508 169.228 162.856 169.75 163.223C169.924 163.32 170.136 163.455 170.388 163.629C170.62 163.822 170.871 164.006 171.142 164.18C171.412 164.354 171.673 164.499 171.925 164.615C172.195 164.731 172.437 164.76 172.65 164.702ZM175.55 144.953C175.975 144.702 176.304 144.383 176.536 143.996C176.787 143.609 176.835 143.136 176.681 142.575C176.526 142.304 176.294 142.14 175.985 142.082C175.675 142.005 175.405 142.043 175.173 142.198C174.979 142.314 174.786 142.449 174.593 142.604C174.419 142.759 174.264 142.933 174.129 143.126C173.993 143.319 173.906 143.532 173.868 143.764C173.829 143.977 173.858 144.209 173.955 144.46C174.09 144.808 174.312 145.001 174.622 145.04C174.95 145.079 175.26 145.05 175.55 144.953ZM194.426 136.224C194.697 136.727 194.88 137.239 194.977 137.761C195.093 138.264 195.151 138.776 195.151 139.298C195.151 139.859 195.103 140.419 195.006 140.98C194.929 141.541 194.832 142.111 194.716 142.691C194.6 143.252 194.494 143.822 194.397 144.402C194.32 144.963 194.281 145.533 194.281 146.113C194.281 146.577 194.32 147.051 194.397 147.534C194.474 147.998 194.619 148.472 194.832 148.955C194.716 149.593 194.455 150.105 194.049 150.492C193.662 150.859 193.208 151.159 192.686 151.391C192.183 151.623 191.652 151.807 191.091 151.942C190.53 152.077 190.028 152.232 189.583 152.406C188.926 152.503 188.239 152.599 187.524 152.696C186.809 152.793 186.103 152.841 185.407 152.841C184.711 152.841 184.034 152.764 183.377 152.609C182.739 152.474 182.149 152.203 181.608 151.797C181.221 151.488 180.912 151.159 180.68 150.811C180.448 150.463 180.332 150.096 180.332 149.709C180.332 149.593 180.342 149.477 180.361 149.361C180.38 149.226 180.419 149.09 180.477 148.955C181.231 148.046 182.072 147.283 183 146.664C183.947 146.045 184.943 145.543 185.987 145.156C187.05 144.75 188.152 144.441 189.293 144.228C190.453 144.015 191.623 143.87 192.802 143.793C193.247 143.426 193.546 143 193.701 142.517C193.875 142.014 193.962 141.483 193.962 140.922C193.962 140.303 193.885 139.685 193.73 139.066C193.305 138.331 192.725 137.964 191.99 137.964C191.719 137.964 191.458 138.022 191.207 138.138C190.956 138.293 190.695 138.457 190.424 138.631C190.153 138.786 189.883 138.863 189.612 138.863H189.467C189.312 138.786 189.206 138.699 189.148 138.602C189.09 138.486 189.061 138.351 189.061 138.196C189.061 138.099 189.071 138.003 189.09 137.906C189.109 137.809 189.129 137.713 189.148 137.616C189.148 137.597 189.148 137.587 189.148 137.587C189.167 137.568 189.177 137.548 189.177 137.529C189.544 136.949 190.028 136.485 190.627 136.137C191.246 135.789 191.893 135.615 192.57 135.615C193.247 135.615 193.865 135.818 194.426 136.224ZM192.512 148.143C192.609 147.756 192.657 147.389 192.657 147.041C192.657 146.77 192.618 146.519 192.541 146.287C192.483 146.055 192.377 145.833 192.222 145.62C191.99 145.311 191.71 145.117 191.381 145.04C191.072 144.943 190.743 144.895 190.395 144.895L189.264 144.924C188.742 145.156 188.162 145.369 187.524 145.562C186.886 145.736 186.277 145.968 185.697 146.258C185.136 146.548 184.653 146.925 184.247 147.389C183.841 147.853 183.599 148.481 183.522 149.274C183.773 149.661 184.092 149.912 184.479 150.028C184.866 150.125 185.291 150.173 185.755 150.173L187.872 150.086C188.278 149.951 188.694 149.854 189.119 149.796C189.544 149.719 189.96 149.622 190.366 149.506C190.791 149.39 191.188 149.235 191.555 149.042C191.922 148.829 192.241 148.53 192.512 148.143Z" fill="white"/>
</g>
<defs>
<filter id="filter0_d_3_133" x="2.47339" y="35.8213" width="222.406" height="207.17" filterUnits="userSpaceOnUse" color-interpolation-filters="sRGB">
<feFlood flood-opacity="0" result="BackgroundImageFix"/>
<feColorMatrix in="SourceAlpha" type="matrix" values="0 0 0 0 0 0 0 0 0 0 0 0 0 0 0 0 0 0 127 0" result="hardAlpha"/>
<feOffset dy="4"/>
<feGaussianBlur stdDeviation="2"/>
<feComposite in2="hardAlpha" operator="out"/>
<feColorMatrix type="matrix" values="0 0 0 0 0 0 0 0 0 0 0 0 0 0 0 0 0 0 0.25 0"/>
<feBlend mode="normal" in2="BackgroundImageFix" result="effect1_dropShadow_3_133"/>
<feBlend mode="normal" in="SourceGraphic" in2="effect1_dropShadow_3_133" result="shape"/>
</filter>
</defs>
</svg>
